<svg xmlns="http://www.w3.org/2000/svg" viewBox="0 0 606.51 71.94"><defs><style>.cls-1{fill:#dbdddc;}</style></defs><g id="Layer_2" data-name="Layer 2"><g id="Layer_1-2" data-name="Layer 1"><path class="cls-1" d="M63.88,0V15.54H62C37.47,15.54,17.59,34.08,17.59,57V71.84H0V58C0,26,27.81,0,62.12,0Z"/><path class="cls-1" d="M48.11,55.55H94V71.84H30.45V58.52a29.49,29.49,0,0,1,8.63-20.74,34,34,0,0,1,24.32-10H76.57V0H94V43.65H64l-1.86,0a14.68,14.68,0,0,0-3.34.38A13.45,13.45,0,0,0,48.11,55.55Z"/><path class="cls-1" d="M171.12,53h-11V71.94H140V.76h32.54c19.42,0,31.62,10.07,31.62,26.34,0,10.47-5.08,18.2-13.93,22.47l15.36,22.37H184Zm.2-36.41H160.13V37.47h11.19c8.34,0,12.5-3.87,12.5-10.37S179.66,16.62,171.32,16.62Z"/><path class="cls-1" d="M272.39,56.38V71.94H215.24V.76h55.83V16.32h-35.9v12h31.62v15H235.17v13Z"/><path class="cls-1" d="M321.09,46.42V71.94H301V46.11L273.81.76h21.25L311.94,29,328.82.76h19.52Z"/><path class="cls-1" d="M383,.76h33.66c23.59,0,39.76,13.73,39.76,35.59s-16.17,35.59-39.76,35.59H383Zm32.85,55.11c12.1,0,20.23-7.22,20.23-19.52S428,16.83,415.86,16.83H403.15v39Z"/><path class="cls-1" d="M524.14,56.38V71.94H467V.76h55.82V16.32H486.93v12h31.62v15H486.93v13Z"/><path class="cls-1" d="M606.51.76,576,71.94H556.17L525.77.76h21.76l19.32,46.37L586.58.76Z"/><rect class="cls-1" x="115.37" width="1.96" height="71.84"/></g></g></svg>